# xmcd
#
# Track frame offsets:
#	150
#	9471
#	19464
#	29426
#	40315
#	54273
#	65881
#	78690
#	89228
#	97803
#	108897
#	121936
#
# Disc length: 1799 seconds
#
# Revision: 1
# Processed by: cddbd v1.5.2PL0 Copyright (c) Steve Scherf et al.
# Submitted via: audiograbber 1.83.01
#
DISCID=9d07050c
DTITLE=Big Tom and The Mainliners - Requests!
DYEAR=2009
DGENRE=
TTITLE0=I Found My Girl In The USA
TTITLE1=Three Steps To Heaven
TTITLE2=I Could Never Be Ashamed
TTITLE3=Johnny B Goode
TTITLE4=My Little Son
TTITLE5=I Can't Make My Dreams Understood
TTITLE6=Me and Bobby Magee
TTITLE7=There Goes My Everything
TTITLE8=There Never Was A Fool
TTITLE9=The Little Shirt My Mother Made For Me
TTITLE10=Let The Four Winds Blow
TTITLE11=Knoxville Girl
EXTD=
EXTT0=
EXTT1=
EXTT2=
EXTT3=
EXTT4=
EXTT5=
EXTT6=
EXTT7=
EXTT8=
EXTT9=
EXTT10=
EXTT11=
PLAYORDER=
